<mxfile host="app.diagrams.net" modified="2022-11-12T14:27:07.467Z" agent="5.0 (Windows NT 6.3; Win64; x64) AppleWebKit/537.36 (KHTML, like Gecko) Chrome/107.0.0.0 Safari/537.36" etag="ITEB8E_4hiZtKMtJRQnx" version="20.5.3" type="github">
  <diagram id="prtHgNgQTEPvFCAcTncT" name="Page-1">
    <mxGraphModel dx="1108" dy="425" grid="1" gridSize="10" guides="1" tooltips="1" connect="1" arrows="1" fold="1" page="1" pageScale="1" pageWidth="827" pageHeight="1169" math="0" shadow="0">
      <root>
        <mxCell id="0" />
        <mxCell id="1" parent="0" />
        <mxCell id="dNxyNK7c78bLwvsdeMH5-11" value="Naghsh Film" style="swimlane;html=1;startSize=20;horizontal=1;containerType=tree;glass=0;" parent="1" vertex="1">
          <mxGeometry x="40" y="50" width="710" height="350" as="geometry" />
        </mxCell>
        <mxCell id="ZYtGg0DuIrbYoMTLIxJZ-1" value="&lt;font style=&quot;font-size: 18px;&quot;&gt;Nagsh Film&lt;/font&gt;" style="rounded=0;whiteSpace=wrap;html=1;" vertex="1" parent="dNxyNK7c78bLwvsdeMH5-11">
          <mxGeometry x="314" y="50" width="120" height="60" as="geometry" />
        </mxCell>
        <mxCell id="ZYtGg0DuIrbYoMTLIxJZ-2" value="" style="edgeStyle=orthogonalEdgeStyle;rounded=0;orthogonalLoop=1;jettySize=auto;html=1;" edge="1" source="ZYtGg0DuIrbYoMTLIxJZ-1" target="ZYtGg0DuIrbYoMTLIxJZ-3" parent="dNxyNK7c78bLwvsdeMH5-11">
          <mxGeometry relative="1" as="geometry">
            <Array as="points">
              <mxPoint x="374" y="130" />
              <mxPoint x="180" y="130" />
            </Array>
          </mxGeometry>
        </mxCell>
        <mxCell id="ZYtGg0DuIrbYoMTLIxJZ-10" style="edgeStyle=orthogonalEdgeStyle;rounded=0;orthogonalLoop=1;jettySize=auto;html=1;fontSize=18;" edge="1" parent="dNxyNK7c78bLwvsdeMH5-11" source="ZYtGg0DuIrbYoMTLIxJZ-3" target="ZYtGg0DuIrbYoMTLIxJZ-9">
          <mxGeometry relative="1" as="geometry" />
        </mxCell>
        <mxCell id="ZYtGg0DuIrbYoMTLIxJZ-3" value="&lt;font style=&quot;font-size: 18px;&quot;&gt;Decofoil&lt;/font&gt;" style="rounded=0;whiteSpace=wrap;html=1;" vertex="1" parent="dNxyNK7c78bLwvsdeMH5-11">
          <mxGeometry x="120" y="150" width="120" height="60" as="geometry" />
        </mxCell>
        <mxCell id="ZYtGg0DuIrbYoMTLIxJZ-11" style="edgeStyle=orthogonalEdgeStyle;rounded=0;orthogonalLoop=1;jettySize=auto;html=1;fontSize=18;" edge="1" parent="dNxyNK7c78bLwvsdeMH5-11" source="ZYtGg0DuIrbYoMTLIxJZ-5" target="ZYtGg0DuIrbYoMTLIxJZ-9">
          <mxGeometry relative="1" as="geometry" />
        </mxCell>
        <mxCell id="ZYtGg0DuIrbYoMTLIxJZ-5" value="&lt;font style=&quot;font-size: 18px;&quot;&gt;RoseFilm&lt;/font&gt;" style="rounded=0;whiteSpace=wrap;html=1;" vertex="1" parent="dNxyNK7c78bLwvsdeMH5-11">
          <mxGeometry x="510" y="150" width="120" height="60" as="geometry" />
        </mxCell>
        <mxCell id="ZYtGg0DuIrbYoMTLIxJZ-4" style="edgeStyle=orthogonalEdgeStyle;rounded=0;orthogonalLoop=1;jettySize=auto;html=1;fontSize=18;" edge="1" parent="dNxyNK7c78bLwvsdeMH5-11" source="ZYtGg0DuIrbYoMTLIxJZ-1" target="ZYtGg0DuIrbYoMTLIxJZ-5">
          <mxGeometry relative="1" as="geometry">
            <mxPoint x="530" y="140" as="targetPoint" />
            <Array as="points">
              <mxPoint x="374" y="130" />
              <mxPoint x="530" y="130" />
            </Array>
          </mxGeometry>
        </mxCell>
        <mxCell id="ZYtGg0DuIrbYoMTLIxJZ-9" value="Enterprise-Level Purchase Organization" style="rounded=0;whiteSpace=wrap;html=1;fontSize=18;" vertex="1" parent="dNxyNK7c78bLwvsdeMH5-11">
          <mxGeometry x="120" y="260" width="510" height="60" as="geometry" />
        </mxCell>
      </root>
    </mxGraphModel>
  </diagram>
</mxfile>
